<svg id="Layer_1" data-name="Layer 1" xmlns="http://www.w3.org/2000/svg" viewBox="0 0 24 18">
  <g>
    <path d="M8.21613,3.76414h0a.7506.7506,0,0,0,.75036.75083H22.10392L19.642,10.49835H9.429L5.29818.46448A.75.75,0,0,0,4.60466,0H.75591A.75614.75614,0,0,0,0,.75638H0a.75615.75615,0,0,0,.75591.75639h3.3198L8.20088,11.53542A.75.75,0,0,0,8.89448,12H20.17656a.75005.75005,0,0,0,.69388-.46526L23.943,4.04867a.75041.75041,0,0,0-.6942-1.03535H8.96649A.75059.75059,0,0,0,8.21613,3.76414Z"/>
    <path d="M10.53555,13.5a2.25,2.25,0,1,0,2.25,2.25A2.25,2.25,0,0,0,10.53555,13.5Zm0,3a.75.75,0,1,1,.75-.75A.75.75,0,0,1,10.53555,16.5Z"/>
    <path d="M18.53555,13.5a2.25,2.25,0,1,0,2.25,2.25A2.25,2.25,0,0,0,18.53555,13.5Zm0,3a.75.75,0,1,1,.75-.75A.75.75,0,0,1,18.53555,16.5Z"/>
  </g>
</svg>
