<svg id="Layer_1" data-name="Layer 1" xmlns="http://www.w3.org/2000/svg" viewBox="0 0 20 20">
  <defs>
    <style>
      .cls-1 {
        fill: #fb0;
      }
    </style>
  </defs>
  <g>
    <path d="M7,11.5H1.5A1.5,1.5,0,0,0,0,13v5.5A1.5,1.5,0,0,0,1.5,20H7a1.5,1.5,0,0,0,1.5-1.5V13A1.5,1.5,0,0,0,7,11.5Zm0,7H1.5V13H7Z"/>
    <path d="M17,11.5H11.5A1.5,1.5,0,0,0,10,13v5.5A1.5,1.5,0,0,0,11.5,20H17a1.5,1.5,0,0,0,1.5-1.5V13A1.5,1.5,0,0,0,17,11.5Zm0,7H11.5V13H17Z"/>
    <path d="M7,1.5H1.5A1.5,1.5,0,0,0,0,3V8.5A1.5,1.5,0,0,0,1.5,10H7A1.5,1.5,0,0,0,8.5,8.5V3A1.5,1.5,0,0,0,7,1.5Zm0,7H1.5V3H7Z"/>
    <path class="cls-1" d="M13.55023.43936,9.66115,4.32844a1.5,1.5,0,0,0,0,2.12133l3.88908,3.88908a1.5,1.5,0,0,0,2.12133,0l3.88908-3.88908a1.5,1.5,0,0,0,0-2.12133L15.67156.43936A1.5,1.5,0,0,0,13.55023.43936ZM18.5,5.38911,14.61089,9.27819,10.72181,5.38911,14.61089,1.5Z"/>
  </g>
</svg>
