<svg id="Layer_1" data-name="Layer 1" xmlns="http://www.w3.org/2000/svg" xmlns:xlink="http://www.w3.org/1999/xlink" viewBox="0 0 22 22">
  <defs>
    <style>
      .cls-1 {
        fill: url(#linear-gradient);
      }

      .cls-2 {
        fill: url(#linear-gradient-2);
      }

      .cls-3 {
        fill: url(#radial-gradient);
      }
    </style>
    <linearGradient id="linear-gradient" x1="18.77817" y1="18.77817" x2="3.22183" y2="3.22183" gradientUnits="userSpaceOnUse">
      <stop offset="0" stop-color="#e8e8e8"/>
      <stop offset="1" stop-color="#fff"/>
    </linearGradient>
    <linearGradient id="linear-gradient-2" x1="16.65685" y1="16.65685" x2="5.34315" y2="5.34315" gradientUnits="userSpaceOnUse">
      <stop offset="0" stop-color="#fafafa"/>
      <stop offset="1" stop-color="#e0e0e0"/>
    </linearGradient>
    <radialGradient id="radial-gradient" cx="16.21277" cy="15.6383" r="13.87162" gradientTransform="translate(19.73744 35.04194) rotate(-135) scale(1 0.71799)" gradientUnits="userSpaceOnUse">
      <stop offset="0" stop-color="#ffcf3d"/>
      <stop offset="0.20751" stop-color="#ffcd38"/>
      <stop offset="0.46687" stop-color="#ffc628"/>
      <stop offset="0.75273" stop-color="#ffbc0f"/>
      <stop offset="0.89013" stop-color="#ffb600"/>
      <stop offset="1" stop-color="#de9d00"/>
    </radialGradient>
  </defs>
  <circle class="cls-1" cx="11" cy="11" r="11"/>
  <circle class="cls-2" cx="11" cy="11" r="8"/>
  <circle class="cls-3" cx="11" cy="11" r="7"/>
  <path d="M14.23119,8.13191,9.4502,12.913,7.76881,11.23157a.45035.45035,0,0,0-.63661-.0003h0a.45038.45038,0,0,0-.00029.63721l1.99955,1.99961a.45034.45034,0,0,0,.63661.00029l.00117-.00117.00029.00029,5.09856-5.09867a.45038.45038,0,0,0-.00029-.63721h0A.45034.45034,0,0,0,14.23119,8.13191Z"/>
</svg>
