<svg width="40" height="40" viewBox="0 0 40 40" fill="none" xmlns="http://www.w3.org/2000/svg">
												<g filter="url(#filter0_dd)">
												<rect x="5" y="5" width="30" height="30" rx="15" fill="url(#paint0_linear)"></rect>
												</g>
												<g filter="url(#filter1_ii)">
												<rect x="9" y="9" width="22" height="22" rx="11" fill="url(#paint1_linear)"></rect>
												</g>
												<rect x="9.5" y="9.5" width="21" height="21" rx="10.5" stroke="url(#paint2_linear)"></rect>
												<path d="M18.1789 23.8211L14.179 19.8211C14.0644 19.7065 14 19.551 14 19.3889C14 19.2268 14.0644 19.0713 14.179 18.9567C14.2358 18.8999 14.3032 18.8549 14.3773 18.8242C14.4515 18.7935 14.531 18.7777 14.6113 18.7777C14.6915 18.7777 14.771 18.7935 14.8452 18.8242C14.9194 18.8549 14.9867 18.8999 15.0435 18.9567L18.6112 22.5245L24.9565 16.179C25.0133 16.1223 25.0807 16.0773 25.1548 16.0465C25.229 16.0158 25.3085 16 25.3887 16C25.469 16 25.5485 16.0158 25.6227 16.0465C25.6968 16.0773 25.7642 16.1223 25.821 16.179C25.8777 16.2358 25.9228 16.3032 25.9535 16.3773C25.9842 16.4515 26 16.531 26 16.6113C26 16.6915 25.9842 16.771 25.9535 16.8452C25.9228 16.9193 25.8777 16.9867 25.821 17.0435L19.0427 23.8212C18.9282 23.9357 18.7728 24 18.6108 24C18.4488 24 18.2935 23.9357 18.1789 23.8211Z" fill="white"></path>
												<defs>
												<filter id="filter0_dd" x="0" y="0" width="40" height="40" filterUnits="userSpaceOnUse" color-interpolation-filters="sRGB">
												<feFlood flood-opacity="0" result="BackgroundImageFix"></feFlood>
												<feColorMatrix in="SourceAlpha" type="matrix" values="0 0 0 0 0 0 0 0 0 0 0 0 0 0 0 0 0 0 127 0"></feColorMatrix>
												<feOffset dx="1" dy="1"></feOffset>
												<feGaussianBlur stdDeviation="2"></feGaussianBlur>
												<feColorMatrix type="matrix" values="0 0 0 0 0 0 0 0 0 0 0 0 0 0 0 0 0 0 0.1 0"></feColorMatrix>
												<feBlend mode="normal" in2="BackgroundImageFix" result="effect1_dropShadow"></feBlend>
												<feColorMatrix in="SourceAlpha" type="matrix" values="0 0 0 0 0 0 0 0 0 0 0 0 0 0 0 0 0 0 127 0"></feColorMatrix>
												<feOffset dx="-1" dy="-1"></feOffset>
												<feGaussianBlur stdDeviation="2"></feGaussianBlur>
												<feColorMatrix type="matrix" values="0 0 0 0 1 0 0 0 0 1 0 0 0 0 1 0 0 0 1 0"></feColorMatrix>
												<feBlend mode="normal" in2="effect1_dropShadow" result="effect2_dropShadow"></feBlend>
												<feBlend mode="normal" in="SourceGraphic" in2="effect2_dropShadow" result="shape"></feBlend>
												</filter>
												<filter id="filter1_ii" x="8" y="8" width="24" height="24" filterUnits="userSpaceOnUse" color-interpolation-filters="sRGB">
												<feFlood flood-opacity="0" result="BackgroundImageFix"></feFlood>
												<feBlend mode="normal" in="SourceGraphic" in2="BackgroundImageFix" result="shape"></feBlend>
												<feColorMatrix in="SourceAlpha" type="matrix" values="0 0 0 0 0 0 0 0 0 0 0 0 0 0 0 0 0 0 127 0" result="hardAlpha"></feColorMatrix>
												<feOffset dx="1" dy="1"></feOffset>
												<feGaussianBlur stdDeviation="2"></feGaussianBlur>
												<feComposite in2="hardAlpha" operator="arithmetic" k2="-1" k3="1"></feComposite>
												<feColorMatrix type="matrix" values="0 0 0 0 0 0 0 0 0 0 0 0 0 0 0 0 0 0 0.3 0"></feColorMatrix>
												<feBlend mode="normal" in2="shape" result="effect1_innerShadow"></feBlend>
												<feColorMatrix in="SourceAlpha" type="matrix" values="0 0 0 0 0 0 0 0 0 0 0 0 0 0 0 0 0 0 127 0" result="hardAlpha"></feColorMatrix>
												<feOffset dx="-1" dy="-1"></feOffset>
												<feGaussianBlur stdDeviation="2"></feGaussianBlur>
												<feComposite in2="hardAlpha" operator="arithmetic" k2="-1" k3="1"></feComposite>
												<feColorMatrix type="matrix" values="0 0 0 0 1 0 0 0 0 1 0 0 0 0 1 0 0 0 0.15 0"></feColorMatrix>
												<feBlend mode="normal" in2="effect1_innerShadow" result="effect2_innerShadow"></feBlend>
												</filter>
												<linearGradient id="paint0_linear" x1="5" y1="5" x2="35" y2="35" gradientUnits="userSpaceOnUse">
												<stop offset="0.146788" stop-color="white"></stop>
												<stop offset="0.851728" stop-color="#E8E8E8"></stop>
												</linearGradient>
												<linearGradient id="paint1_linear" x1="9" y1="9" x2="31" y2="31" gradientUnits="userSpaceOnUse">
												<stop offset="0.0401813" stop-color="#004D46"></stop>
												<stop offset="1" stop-color="#DDFF99"></stop>
												</linearGradient>
												<linearGradient id="paint2_linear" x1="9" y1="9" x2="31" y2="31" gradientUnits="userSpaceOnUse">
												<stop offset="0.164455" stop-color="#E0E0E0"></stop>
												<stop offset="0.833891" stop-color="#FAFAFA"></stop>
												</linearGradient>
												</defs>
												</svg>