<svg id="Layer_1" data-name="Layer 1" xmlns="http://www.w3.org/2000/svg" viewBox="0 0 14 16">
  <defs>
    <style>
      .cls-1 {
        fill: #404040;
      }

      .cls-2 {
        fill: #bfbfbf;
      }
    </style>
  </defs>
  <g>
    <path class="cls-1" d="M12.875,1.96056h-1.8508a.375.375,0,1,0,0,.75H12.875a.37493.37493,0,0,1,.375.375V4.23782H.75V3.08548a.375.375,0,0,1,.375-.375H9.11683a.375.375,0,1,0,0-.75h-.3164V1.12495A1.125,1.125,0,0,0,7.67546,0H6.32454a1.125,1.125,0,0,0-1.125,1.12495v.83564H1.125A1.125,1.125,0,0,0,0,3.08548V4.6128a.375.375,0,0,0,.375.375h13.25A.37491.37491,0,0,0,14,4.6128V3.08548a1.12493,1.12493,0,0,0-1.125-1.12492ZM5.94955,1.12495a.375.375,0,0,1,.375-.375H7.67546a.375.375,0,0,1,.375.375v.83564H5.94955Z"/>
    <path class="cls-1" d="M12.87483,1.96051H11.02425a.375.375,0,1,0,0,.74994h1.85058a.37489.37489,0,0,1,.375.375V4.23779H.75008V3.08545a.37489.37489,0,0,1,.375-.375H9.11653a.375.375,0,1,0,0-.74994H8.80062V1.125A1.12517,1.12517,0,0,0,7.67562,0H6.32478A1.12522,1.12522,0,0,0,5.19954,1.125v.83551H1.12508a1.125,1.125,0,0,0-1.125,1.125V4.61279a.3749.3749,0,0,0,.375.375H13.62483a.3749.3749,0,0,0,.375-.375V3.08551A1.12481,1.12481,0,0,0,12.87483,1.96051ZM5.94954,1.125A.37511.37511,0,0,1,6.32478.75H7.67562a.37506.37506,0,0,1,.375.375v.83551H5.94954Z"/>
    <path class="cls-1" d="M12.1667,5.77187a.37537.37537,0,0,0-.41633.32922l-1.031,8.81759a.375.375,0,0,1-.37248.33146H3.65311a.375.375,0,0,1-.37248-.33146l-1.031-8.81759a.37536.37536,0,0,0-.74564.08713l1.02969,8.81727A1.125,1.125,0,0,0,3.65108,16H10.3489a1.125,1.125,0,0,0,1.11745-.99451L12.496,6.18822A.37534.37534,0,0,0,12.1667,5.77187Z"/>
    <path class="cls-2" d="M9.11667,2.71047H1.125a.375.375,0,0,0-.375.375V4.23781h12.5V3.08547a.375.375,0,0,0-.375-.375H11.02415a.375.375,0,0,1-.375-.375H9.49168A.375.375,0,0,1,9.11667,2.71047Z"/>
    <path class="cls-1" d="M5.25779,6.67157a.375.375,0,0,0-.75,0V13.7023a.375.375,0,1,0,.75,0Z"/>
    <rect class="cls-1" x="6.625" y="6.29661" width="0.74998" height="7.78068" rx="0.37498"/>
    <rect class="cls-1" x="8.74219" y="6.29661" width="0.74998" height="7.78068" rx="0.37498"/>
  </g>
</svg>
