<svg id="Layer_1" data-name="Layer 1" xmlns="http://www.w3.org/2000/svg" xmlns:xlink="http://www.w3.org/1999/xlink" viewBox="0 0 30 30">
  <defs>
    <style>
      .cls-1 {
        fill: url(#linear-gradient);
      }

      .cls-2 {
        fill: url(#linear-gradient-2);
      }

      .cls-3 {
        fill: url(#linear-gradient-3);
      }

      .cls-4 {
        fill: #fff;
      }
    </style>
    <linearGradient id="linear-gradient" x1="25.6066" y1="25.60678" x2="4.3934" y2="4.39358" gradientUnits="userSpaceOnUse">
      <stop offset="0" stop-color="#e8e8e8"/>
      <stop offset="1" stop-color="#fff"/>
    </linearGradient>
    <linearGradient id="linear-gradient-2" x1="22.77817" y1="22.77817" x2="7.22183" y2="7.22183" gradientUnits="userSpaceOnUse">
      <stop offset="0" stop-color="#fafafa"/>
      <stop offset="1" stop-color="#e0e0e0"/>
    </linearGradient>
    <linearGradient id="linear-gradient-3" x1="3.93617" y1="3.93617" x2="25.95754" y2="25.95754" gradientUnits="userSpaceOnUse">
      <stop offset="0" stop-color="#004d47"/>
      <stop offset="1" stop-color="#df9"/>
    </linearGradient>
  </defs>
  <circle class="cls-1" cx="15" cy="15.00018" r="15"/>
  <circle class="cls-2" cx="15" cy="15" r="11"/>
  <circle class="cls-3" cx="15" cy="15" r="10"/>
  <path class="cls-4" d="M13.17893,18.8211l-3.9999-4a.61126.61126,0,0,1,0-.86445h0a.61127.61127,0,0,1,.86447,0l3.56772,3.56775,6.3453-6.3454a.61124.61124,0,0,1,.86445,0h0a.61124.61124,0,0,1,0,.86445L14.0427,18.82113A.6108.6108,0,0,1,13.17893,18.8211Z"/>
</svg>
