<svg id="Layer_1" data-name="Layer 1" xmlns="http://www.w3.org/2000/svg" viewBox="0 0 24 24">
  <defs>
    <style>
      .cls-1 {
        fill: gray;
      }
    </style>
  </defs>
  <path class="cls-1" d="M21.99976.00024H2.00024a2.0001,2.0001,0,0,0-2,2V21.99976a2.0001,2.0001,0,0,0,2,2H12.59V14.50024H10v-3.5h2.54993V9.63037c0-3.46,1.27-6.09009,6.639-6.09009h1V7.13037a5.17287,5.17287,0,0,0-1-.09106c-1.88,0-2.8.671-2.8,2.401v1.559H20.199v3.532h-3.77v9.46851h5.5708a2.0001,2.0001,0,0,0,2-2V2.00024A2.0001,2.0001,0,0,0,21.99976.00024Z"/>
</svg>
