<svg id="Layer_1" data-name="Layer 1" xmlns="http://www.w3.org/2000/svg" viewBox="0 0 8 12">
  <defs>
    <style>
      .cls-1 {
        fill: gray;
      }
    </style>
  </defs>
  <g>
    <path class="cls-1" d="M4,0A4.00172,4.00172,0,0,0,.72156,6.294,33.22207,33.22207,0,0,1,4,12,33.22982,33.22982,0,0,1,7.27856,6.294,4.00185,4.00185,0,0,0,4,0ZM6.6582,5.87183A45.06419,45.06419,0,0,0,4,10.18726,45.1207,45.1207,0,0,0,1.33691,5.865a3.25005,3.25005,0,1,1,5.32129.00684Z"/>
    <path class="cls-1" d="M4,1.49976a2.5,2.5,0,1,0,2.5,2.5A2.5,2.5,0,0,0,4,1.49976Zm0,4.25a1.75,1.75,0,1,1,1.75-1.75A1.74993,1.74993,0,0,1,4,5.74976Z"/>
  </g>
</svg>
