<svg id="Layer_1" data-name="Layer 1" xmlns="http://www.w3.org/2000/svg" viewBox="0 0 24 24">
  <defs>
    <style>
      .cls-1 {
        fill: gray;
      }
    </style>
  </defs>
  <g>
    <path class="cls-1" d="M17,0H7A7,7,0,0,0,0,7V17a7,7,0,0,0,7,7H17a7,7,0,0,0,7-7V7A7,7,0,0,0,17,0Zm5.5,17A5.5,5.5,0,0,1,17,22.5H7A5.5,5.5,0,0,1,1.5,17V7A5.5,5.5,0,0,1,7,1.5H17A5.5,5.5,0,0,1,22.5,7Z"/>
    <path class="cls-1" d="M12,5.5A6.5,6.5,0,1,0,18.5,12,6.5,6.5,0,0,0,12,5.5ZM12,17a5,5,0,1,1,5-5A4.99994,4.99994,0,0,1,12,17Z"/>
    <circle class="cls-1" cx="18.5" cy="5.5" r="1.5"/>
  </g>
</svg>
