<svg id="Layer_1" data-name="Layer 1" xmlns="http://www.w3.org/2000/svg" viewBox="0 0 20 18">
  <path d="M20,5.84459a5.73459,5.73459,0,0,0-.966-3.18212A5.948,5.948,0,0,0,16.44592.5074a6.13045,6.13045,0,0,0-3.374-.433A6.05778,6.05778,0,0,0,9.99981,1.50246a6.0985,6.0985,0,0,0-8.35618.319,5.73482,5.73482,0,0,0,.115,8.15125l-.002.002L9.99981,18,18.243,9.97473l-.002-.002a5.80539,5.80539,0,0,0,1.302-1.893A5.69668,5.69668,0,0,0,20,5.84459ZM9.99981,15.92193,2.82364,8.9367l.002-.002a4.36317,4.36317,0,0,1-1.036-1.579,4.27754,4.27754,0,0,1,.298-3.65214,4.41073,4.41073,0,0,1,1.279-1.4,4.53676,4.53676,0,0,1,1.764-.749,4.58465,4.58465,0,0,1,1.92307.04,4.52119,4.52119,0,0,1,1.729.82105,4.39874,4.39874,0,0,1,1.217,1.452,4.39755,4.39755,0,0,1,1.217-1.45507,4.57938,4.57938,0,0,1,5.42015-.115,4.42445,4.42445,0,0,1,1.281,1.40206,4.27942,4.27942,0,0,1,.295,3.65512,4.367,4.367,0,0,1-1.039,1.58l.002.002Z"/>
</svg>
