<svg id="Layer_1" data-name="Layer 1" xmlns="http://www.w3.org/2000/svg" viewBox="0 0 18 12">
  <defs>
    <style>
      .cls-1 {
        fill: #1d1d1b;
      }
    </style>
  </defs>
  <path class="cls-1" d="M16.5,0H1.5A1.5,1.5,0,0,0,0,1.5v9A1.5,1.5,0,0,0,1.5,12h15A1.5,1.5,0,0,0,18,10.5v-9A1.5,1.5,0,0,0,16.5,0ZM1.49951.74982H16.64168L16.65381.781,9.50654,7.32674a.75.75,0,0,1-1.01308,0L1.45032.87637ZM.87866,10.89465a.72721.72721,0,0,1-.12915-.39483v-9a.72831.72831,0,0,1,.04273-.21L6.66968,6.67261ZM9,11.24982H1.66479L7.23413,7.18945l.7528.68942a1.5,1.5,0,0,0,2.02614,0l.7528-.68942,5.56934,4.06037Zm8.25049-.75a.72721.72721,0,0,1-.12915.39483l-5.791-4.222,5.87744-5.38282a.72831.72831,0,0,1,.04273.21Z"/>
</svg>
