<svg id="Layer_1" data-name="Layer 1" xmlns="http://www.w3.org/2000/svg" viewBox="0 0 12 12">
  <defs>
    <style>
      .cls-1 {
        fill: gray;
      }
    </style>
  </defs>
  <path class="cls-1" d="M11.971,9.3a1.34284,1.34284,0,0,0-.391-.668q-.75156-.75-1.506-1.495a1.20975,1.20975,0,0,0-1.105-.363,1.31541,1.31541,0,0,0-.692.384q-.411.405-.814.82a.08844.08844,0,0,1-.024.023.07944.07944,0,0,1-.03.012.11508.11508,0,0,1-.032-.001.07126.07126,0,0,1-.029-.014,6.5551,6.5551,0,0,1-1.425-.989q-.24444-.216-.475-.445l-.006-.006-.006-.006q-.22944-.231-.444-.475a6.52322,6.52322,0,0,1-.99-1.425.08687.08687,0,0,1-.014-.029.08776.08776,0,0,1,0-.032.06425.06425,0,0,1,.011-.03.08778.08778,0,0,1,.023-.024q.414-.402.82-.814a1.31517,1.31517,0,0,0,.384-.692,1.21,1.21,0,0,0-.363-1.105Q4.12051,1.16851,3.368.42a1.34245,1.34245,0,0,0-.668-.391,1.238,1.238,0,0,0-1.161.354c-.331.32-.651.652-.974.981-.013.013-.026.026-.039.04A1.89579,1.89579,0,0,0,.024,2.459,3.27717,3.27717,0,0,0,.089,3.614a7.034,7.034,0,0,0,.592,1.695,12.94321,12.94321,0,0,0,6.00992,6.01,7.0344,7.0344,0,0,0,1.695.592,3.27888,3.27888,0,0,0,1.155.065,1.89558,1.89558,0,0,0,1.055-.502l.041-.04c.328-.322.66-.642.98-.973A1.23815,1.23815,0,0,0,11.971,9.3Zm-.893.64c-.259.268-.526.528-.792.788l-.213.209a1.15617,1.15617,0,0,1-.651.299,2.56916,2.56916,0,0,1-.895-.062,6.20108,6.20108,0,0,1-1.513-.532A12.20908,12.20908,0,0,1,1.358,4.987,6.212,6.212,0,0,1,.826,3.473a2.59136,2.59136,0,0,1-.061-.895,1.19292,1.19292,0,0,1,.336-.689L1.3,1.686c.251-.257.502-.514.761-.764A.50643.50643,0,0,1,2.225.799a.49933.49933,0,0,1,.2-.049.54122.54122,0,0,1,.121.014A.61126.61126,0,0,1,2.837.951l.06.06q.717.717,1.43005,1.44a.45788.45788,0,0,1,.142.202.45328.45328,0,0,1,.018.245.58754.58754,0,0,1-.178.298q-.402.405-.811.804a.82885.82885,0,0,0-.17.982,7.23164,7.23164,0,0,0,1.1,1.59c.154.175.312.345.432.46l.059.064c.164.164.334.322.509.476a7.186,7.186,0,0,0,1.59,1.1.8281.8281,0,0,0,.983-.171q.39752-.40952.802-.809a.58913.58913,0,0,1,.298-.179.46292.46292,0,0,1,.448.16q.75448.741,1.5,1.49a.61186.61186,0,0,1,.187.291.47815.47815,0,0,1-.01.265A.49.49,0,0,1,11.078,9.94Z"/>
</svg>
