<svg id="Layer_1" data-name="Layer 1" xmlns="http://www.w3.org/2000/svg" xmlns:xlink="http://www.w3.org/1999/xlink" viewBox="0 0 128 24">
  <defs>
    <style>
      .cls-1 {
        fill: url(#linear-gradient);
      }
    </style>
    <linearGradient id="linear-gradient" x1="11.99999" y1="2324.6001" x2="11.99999" y2="2300.6001" gradientTransform="matrix(1, 0, 0, -1, 0.00001, 2324.6001)" gradientUnits="userSpaceOnUse">
      <stop offset="0" stop-color="#fc3"/>
      <stop offset="1" stop-color="#ffb700"/>
    </linearGradient>
  </defs>
  <g>
    <path d="M51.30774,11.011,50.10988,12.066l1.2198,1.12087a.55523.55523,0,0,1,.19777.45049v4.6154a.74624.74624,0,0,1-.21971.47253l-2.41756,2.1429A.50571.50571,0,0,1,48.51649,21H36.022a.792.792,0,0,1-.74728-.74728V3.73626a.68371.68371,0,0,1,.21981-.51648A.7437.7437,0,0,1,36.022,3H48.51649a.50552.50552,0,0,1,.37369.13186l2.41756,2.13187a.74635.74635,0,0,1,.21971.47254v4.80224A.66183.66183,0,0,1,51.30774,11.011ZM47.29669,9.54945V7.49451l-.31864-.24177H39.52752v2.94509h6.84616Zm0,6.945V14.56043l-.945-.69233H39.52752v2.87911h7.45053Zm23.95607,3.64833a.82015.82015,0,0,1-.26368.61543A.93867.93867,0,0,1,70.32966,21H67.30773a.592.592,0,0,1-.58242-.34068l-2.96706-5.5055H58.97808v5.077a.7439.7439,0,0,1-.21981.52747.68395.68395,0,0,1-.5165.21981H55.47256a.792.792,0,0,1-.74727-.74728V3.73626a.68373.68373,0,0,1,.2198-.51648A.74341.74341,0,0,1,55.47256,3H67.71434a.45907.45907,0,0,1,.38456.15384l2.42862,2.16484a.65708.65708,0,0,1,.23078.45055v4.81316a.46347.46347,0,0,1-.16486.38466l-2.53852,2.967,3.077,5.75832A1.01461,1.01461,0,0,1,71.25276,20.14282ZM58.97808,7.27472v3.57146h6.24171L66.50551,9.2967V7.51648l-.31864-.24176ZM90.4176,20.16486a.81222.81222,0,0,1-.25272.59339A.84383.84383,0,0,1,89.56042,21H86.87917a.665.665,0,0,1-.38466-.12087.61778.61778,0,0,1-.24174-.30767L84.87919,16.923a.737.737,0,0,1-.38466.12087h-5.989l-1.20882,3.50551A.70747.70747,0,0,1,76.63739,21H73.92313a.827.827,0,0,1-.59349-.23077.79417.79417,0,0,1-.24174-.58243.89962.89962,0,0,1,.044-.28572L78.8901,3.42857A.62947.62947,0,0,1,79.54951,3h3.82415a.6421.6421,0,0,1,.62641.42857l6.35161,16.40658A.88159.88159,0,0,1,90.4176,20.16486ZM79.945,12.85714h3.38464L81.72532,8.62637h-.31873ZM92.8572,20.25272V3.73626a.684.684,0,0,1,.2197-.51648A.74374.74374,0,0,1,93.60438,3h2.2528a.66155.66155,0,0,1,.47252.21978l8.25239,9.27474V3.73626a.68524.68524,0,0,1,.22037-.51648A.74233.74233,0,0,1,105.32946,3h2.76912a.71462.71462,0,0,1,.737.73626V20.25272a.745.745,0,0,1-.22036.52748.68322.68322,0,0,1-.51669.2198h-1.82389a.53885.53885,0,0,1-.47261-.2198l-8.71432-10.022v9.4945a.744.744,0,0,1-.21942.52748.68466.68466,0,0,1-.5167.2198H93.60438a.792.792,0,0,1-.74718-.74728Zm19.16483,0V3.73626a.6844.6844,0,0,1,.21943-.51648A.74446.74446,0,0,1,112.7694,3h12.17548a.51913.51913,0,0,1,.38446.13186l2.42873,2.13187a.66323.66323,0,0,1,.22037.47254L128,18.25273a.684.684,0,0,1-.21942.49456l-2.45124,2.12087A.51933.51933,0,0,1,124.94488,21H112.7694a.79181.79181,0,0,1-.74737-.74728Zm4.25261-3.50551h7.14268l.30757-.25272v-9.022l-.30757-.21979h-7.14268Z"/>
    <path class="cls-1" d="M24,.00718V7.13326h-.55543q-6.917,0-13.834-.00012a2.20926,2.20926,0,0,0-2.4791,2.48577q.00136,6.45312.00008,12.90614v.59977c.18541.01008.33657.01018.48559.02813.31184.03744.42593-.0766.45315-.40769A15.97647,15.97647,0,0,1,21.07933,8.29587c.9422-.178,1.92385-.2203,2.92067-.32789v7.17108A8.97161,8.97161,0,0,0,15.11309,24H.0045v-.512c0-2.5186.00768-5.0373-.00344-7.5559a3.83474,3.83474,0,0,1,1.17975-2.85823Q7.10309,7.16279,13.0032,1.22955a3.961,3.961,0,0,1,2.98029-1.228c2.48523.019,4.97085.00568,7.45628.0056Z"/>
  </g>
</svg>
