<svg id="Layer_1" data-name="Layer 1" xmlns="http://www.w3.org/2000/svg" viewBox="0 0 16 18">
  <g>
    <path d="M12.434,4.36613a4.313,4.313,0,0,0-.74805-2.426,4.42351,4.42351,0,0,0-1.99-1.608,4.502,4.502,0,0,0-2.563-.248,4.44761,4.44761,0,0,0-2.271,1.195,4.31551,4.31551,0,0,0-.962,4.757,4.3824,4.3824,0,0,0,1.634,1.96,4.502,4.502,0,0,0,4.162.403,4.44278,4.44278,0,0,0,1.439-.946,4.36614,4.36614,0,0,0,.961-1.417A4.301,4.301,0,0,0,12.434,4.36613Zm-4.436,2.865a2.94,2.94,0,0,1-1.617-.483,2.8736,2.8736,0,0,1-1.073-1.286,2.82767,2.82767,0,0,1-.16595-1.655,2.86039,2.86039,0,0,1,.797-1.468,2.92274,2.92274,0,0,1,1.491-.784,2.953,2.953,0,0,1,1.683.163,2.9022,2.9022,0,0,1,1.306,1.055,2.82874,2.82874,0,0,1-.363,3.618A2.93624,2.93624,0,0,1,7.998,7.23112Z"/>
    <path d="M12.404,9.885a3.07383,3.07383,0,0,0-2.13.072A6.32441,6.32441,0,0,1,8,10.367,6.18354,6.18354,0,0,1,5.761,9.95a3.0886,3.0886,0,0,0-2.123-.081,5.44135,5.44135,0,0,0-2.636,1.96A5.30926,5.30926,0,0,0,0,14.929V16.5a1.48889,1.48889,0,0,0,.446,1.06A1.53578,1.53578,0,0,0,1.524,18H14.476a1.53578,1.53578,0,0,0,1.078-.44A1.48889,1.48889,0,0,0,16,16.5V14.929a5.29988,5.29988,0,0,0-.989-3.081A5.43634,5.43634,0,0,0,12.404,9.885ZM14.476,16.5H1.524V14.929a3.82825,3.82825,0,0,1,.704-2.204A3.91418,3.91418,0,0,1,4.083,11.31a1.5945,1.5945,0,0,1,1.12.042,7.83053,7.83053,0,0,0,5.589-.001,1.59464,1.59464,0,0,1,1.118-.043A3.91982,3.91982,0,0,1,13.77,12.722a3.82526,3.82526,0,0,1,.706,2.207Z"/>
  </g>
</svg>
