<svg width="136" height="26" fill="none" xmlns="http://www.w3.org/2000/svg"><path d="M51.797 11.348l-1.277 1.125 1.3 1.195c.14.117.211.277.211.48v4.922c0 .157-.078.325-.234.504l-2.578 2.285c-.094.094-.227.141-.399.141H35.496a.762.762 0 01-.55-.246.762.762 0 01-.247-.55V3.59a.73.73 0 01.235-.55.793.793 0 01.562-.235H48.82c.172 0 .305.047.399.14l2.578 2.274c.156.18.234.347.234.504v5.12c0 .18-.078.348-.234.505zM47.52 9.789V7.598l-.34-.258h-7.946v3.14h7.301l.985-.69zm0 7.406v-2.062l-1.008-.738h-7.278v3.07h7.946l.34-.27zm25.546 3.89a.875.875 0 01-.28.657 1.001 1.001 0 01-.704.258h-3.223c-.296 0-.503-.121-.62-.363l-3.165-5.871h-5.097v5.414c0 .21-.079.398-.235.562a.73.73 0 01-.55.235h-2.954a.762.762 0 01-.55-.247.762.762 0 01-.247-.55V3.59a.73.73 0 01.235-.55.793.793 0 01.562-.235h13.055c.188 0 .324.054.41.164l2.59 2.308c.164.164.246.325.246.48v5.134c0 .18-.058.316-.176.41l-2.707 3.164 3.281 6.14c.086.172.13.332.13.48zM59.976 7.364v3.809h6.657l1.37-1.652V7.62l-.339-.258h-7.687zM93.505 21.11c0 .243-.09.453-.27.633a.9.9 0 01-.644.258h-2.86a.71.71 0 01-.41-.129.659.659 0 01-.257-.328l-1.465-3.89a.786.786 0 01-.41.128H80.8l-1.29 3.739a.765.765 0 01-.28.351.764.764 0 01-.422.129h-2.895a.882.882 0 01-.633-.246.847.847 0 01-.258-.621c0-.11.016-.211.047-.305l6.14-17.566c.11-.305.345-.457.704-.457h4.078c.313 0 .535.152.668.457l6.774 17.496a.94.94 0 01.07.351zm-11.168-7.793h3.61l-1.712-4.511h-.34l-1.558 4.511zm13.77 7.887V3.59a.73.73 0 01.234-.55.793.793 0 01.562-.235h2.403c.18 0 .347.078.504.234l8.8 9.89V3.59a.73.73 0 01.235-.55.792.792 0 01.562-.234h2.953a.764.764 0 01.786.785v17.613a.794.794 0 01-.235.563.729.729 0 01-.551.234h-1.945c-.226 0-.394-.078-.504-.234l-9.293-10.688v10.125a.793.793 0 01-.234.563.73.73 0 01-.551.234h-2.93a.762.762 0 01-.55-.246.762.762 0 01-.246-.55zm20.437 0V3.59a.73.73 0 01.234-.55.794.794 0 01.563-.235h12.984c.18 0 .317.047.41.14l2.59 2.274c.156.156.235.324.235.504l.023 13.347a.73.73 0 01-.234.528l-2.614 2.261c-.093.094-.23.141-.41.141H117.34a.762.762 0 01-.551-.246.762.762 0 01-.246-.55zm4.535-3.738h7.617l.328-.27v-9.62l-.328-.235h-7.617v10.125z" fill="#000"/><path d="M25.001.007v7.424H10.012a2.302 2.302 0 00-2.583 2.59V24.09c.193.01.35.01.506.03.325.038.444-.08.472-.426A16.644 16.644 0 0121.959 8.642c.981-.185 2.004-.23 3.042-.342v7.47a9.346 9.346 0 00-9.258 9.232H.005v-.534c0-2.624.008-5.247-.004-7.871a3.994 3.994 0 011.23-2.978C5.342 9.514 9.447 5.401 13.545 1.281A4.126 4.126 0 0116.65 0c2.59.02 5.178.007 7.768.006H25z" fill="url(#paint0_linear)"/><defs><linearGradient id="paint0_linear" x1="12.501" y1="0" x2="12.501" y2="25.002" gradientUnits="userSpaceOnUse"><stop stop-color="#FC3"/><stop offset="1" stop-color="#FFB700"/></linearGradient></defs><!-- Code injected by live-server -->
</svg>