<svg width="192" height="58" fill="none" xmlns="http://www.w3.org/2000/svg"><path d="M6.96 55.208h.9v2.4h-.84V56h-6v1.608H.18v-2.4h.684c.552-.648.828-1.648.828-3V47.6H6.96v7.608zm-5.1 0h4.26v-6.816H2.532v3.84c0 1.328-.224 2.32-.672 2.976zM14.645 56v-6.84L9.965 56h-.72v-8.4h.84v6.84l4.68-6.84h.72V56h-.84zm8.036-8.4v.792h-2.58V56h-.84v-7.608h-2.58V47.6h6zm6.24 0V56h-.84v-3.36h-2.016L23.761 56h-.96l2.34-3.396c-.6-.104-1.1-.388-1.5-.852a2.45 2.45 0 01-.6-1.632c0-.696.244-1.288.732-1.776a2.438 2.438 0 011.788-.744h3.36zm-3.36 4.248h2.52v-3.456h-2.52a1.6 1.6 0 00-1.188.504 1.687 1.687 0 00-.492 1.224c0 .472.164.88.492 1.224a1.6 1.6 0 001.188.504zM35.583 47.6h.84V56h-.84v-3.54c-.728.36-1.488.54-2.28.54-.8 0-1.44-.224-1.92-.672-.48-.448-.72-1.024-.72-1.728v-3h.84v3c0 .488.156.88.468 1.176.32.288.764.432 1.332.432.792 0 1.552-.18 2.28-.54V47.6zm2.76 0h.84V56h-.84v-8.4zm13.445 0V56h-.84v-7.128l-2.94 4.92h-.12l-2.94-4.92V56h-.84v-8.4h1.044l2.796 4.68 2.796-4.68h1.044zm2.758 7.608h4.08V56h-4.92v-8.4h4.86v.792h-4.02v2.976h3.72v.792h-3.72v3.048zm8.643-4.248c.696 0 1.288.248 1.776.744.496.496.744 1.088.744 1.776 0 .696-.248 1.292-.744 1.788A2.418 2.418 0 0163.19 56h-3.12v-8.4h4.92v.792h-4.08v2.568h2.28zm0 4.248a1.6 1.6 0 001.188-.504c.328-.336.492-.744.492-1.224 0-.472-.164-.876-.492-1.212a1.582 1.582 0 00-1.188-.516h-2.28v3.456h2.28zm2.886.792v-.744c.584.08 1.02-.1 1.307-.54.296-.448.444-1.264.444-2.448V47.6h5.449V56h-.84v-7.608h-3.769v3.9c0 .76-.06 1.396-.18 1.908s-.3.904-.54 1.176a1.77 1.77 0 01-.803.54c-.296.088-.653.116-1.069.084zm9.123-8.4h.84V56h-.84v-8.4zm3.966 7.38l-.72 2.7h-.72l.48-2.7h.96zm14.163.228h.9v2.4h-.84V56h-9.54v-8.4h.84v7.608h3.48V47.6h.84v7.608h3.48V47.6h.84v7.608zm9.116-.324c-.84.84-1.868 1.26-3.084 1.26s-2.244-.42-3.084-1.26c-.84-.848-1.26-1.876-1.26-3.084 0-1.208.42-2.232 1.26-3.072.84-.848 1.868-1.272 3.084-1.272s2.244.424 3.084 1.272c.84.84 1.26 1.864 1.26 3.072s-.42 2.236-1.26 3.084zm-5.58-.576c.672.68 1.504 1.02 2.496 1.02s1.824-.34 2.496-1.02c.672-.688 1.008-1.524 1.008-2.508s-.336-1.816-1.008-2.496c-.672-.688-1.504-1.032-2.496-1.032s-1.824.344-2.496 1.032c-.672.68-1.008 1.512-1.008 2.496s.336 1.82 1.008 2.508zm15.153-2.652c.464.176.824.444 1.08.804.256.36.384.784.384 1.272 0 .704-.264 1.284-.792 1.74-.52.448-1.224.672-2.112.672-.8 0-1.44-.18-1.92-.54a2.78 2.78 0 01-.996-1.356l.72-.408c.104.424.328.784.672 1.08.352.288.86.432 1.524.432.656 0 1.164-.148 1.524-.444.36-.304.54-.696.54-1.176s-.168-.868-.504-1.164c-.328-.304-.784-.456-1.368-.456h-.96v-.792h.66c.568 0 1.02-.144 1.356-.432.336-.288.504-.66.504-1.116 0-.448-.164-.812-.492-1.092-.32-.288-.76-.432-1.32-.432-1.032 0-1.712.44-2.04 1.32l-.696-.408c.208-.512.536-.924.984-1.236.456-.312 1.04-.468 1.752-.468.792 0 1.432.224 1.92.672.488.44.732.992.732 1.656 0 .84-.384 1.464-1.152 1.872zm5.909-4.056c.752 0 1.38.252 1.884.756s.756 1.132.756 1.884-.252 1.38-.756 1.884-1.132.756-1.884.756h-2.16V56h-.84v-8.4h3zm0 4.488c.52 0 .948-.172 1.284-.516.344-.352.516-.796.516-1.332s-.172-.976-.516-1.32c-.336-.352-.764-.528-1.284-.528h-2.16v3.696h2.16zm10.967 2.796c-.84.84-1.868 1.26-3.084 1.26s-2.244-.42-3.084-1.26c-.84-.848-1.26-1.876-1.26-3.084 0-1.208.42-2.232 1.26-3.072.84-.848 1.868-1.272 3.084-1.272s2.244.424 3.084 1.272c.84.84 1.26 1.864 1.26 3.072s-.42 2.236-1.26 3.084zm-5.58-.576c.672.68 1.504 1.02 2.496 1.02s1.824-.34 2.496-1.02c.672-.688 1.008-1.524 1.008-2.508s-.336-1.816-1.008-2.496c-.672-.688-1.504-1.032-2.496-1.032s-1.824.344-2.496 1.032c-.672.68-1.008 1.512-1.008 2.496s.336 1.82 1.008 2.508zm12.201 1.836c-1.272 0-2.324-.42-3.156-1.26-.832-.84-1.248-1.868-1.248-3.084s.416-2.244 1.248-3.084c.832-.84 1.884-1.26 3.156-1.26a4.18 4.18 0 012.136.564 3.862 3.862 0 011.5 1.5l-.744.432a2.983 2.983 0 00-1.176-1.224 3.339 3.339 0 00-1.716-.456c-1.048 0-1.904.34-2.568 1.02-.664.68-.996 1.516-.996 2.508s.332 1.828.996 2.508c.664.68 1.52 1.02 2.568 1.02.624 0 1.196-.152 1.716-.456.52-.304.912-.712 1.176-1.224l.744.42a3.838 3.838 0 01-1.5 1.512 4.18 4.18 0 01-2.136.564zm10.18-8.544v.792h-2.58V56h-.84v-7.608h-2.58V47.6h6zm6.195 8.4l-.78-2.064h-3.984l-.78 2.064h-.888l3.228-8.4h.864l3.228 8.4h-.888zm-4.464-2.856h3.384l-1.692-4.5-1.692 4.5zm13.127-5.688c1.216 0 2.244.424 3.084 1.272.84.84 1.26 1.864 1.26 3.072s-.42 2.236-1.26 3.084c-.84.84-1.868 1.26-3.084 1.26-1.168 0-2.16-.392-2.976-1.176-.808-.784-1.244-1.748-1.308-2.892h-1.572V56h-.84v-8.4h.84v3.684h1.584c.128-1.096.592-2.008 1.392-2.736.8-.728 1.76-1.092 2.88-1.092zm-2.496 6.852c.672.68 1.504 1.02 2.496 1.02s1.824-.34 2.496-1.02c.672-.688 1.008-1.524 1.008-2.508s-.336-1.816-1.008-2.496c-.672-.688-1.504-1.032-2.496-1.032s-1.824.344-2.496 1.032c-.672.68-1.008 1.512-1.008 2.496s.336 1.82 1.008 2.508zm13.08-6.708v.792h-2.58V56h-.84v-7.608h-2.58V47.6h6zm4.2 3.12c.752 0 1.38.252 1.884.756s.756 1.132.756 1.884-.252 1.38-.756 1.884-1.132.756-1.884.756h-3v-8.4h.84v3.12h2.16zm0 4.488c.52 0 .948-.172 1.284-.516.344-.352.516-.796.516-1.332s-.172-.976-.516-1.32c-.336-.352-.764-.528-1.284-.528h-2.16v3.696h2.16zM76.961 16.517l-1.796 1.582 1.83 1.681a.832.832 0 01.296.676v6.923a1.12 1.12 0 01-.33.71l-3.626 3.213a.76.76 0 01-.56.198H54.032a1.188 1.188 0 01-1.121-1.12V5.604a1.026 1.026 0 01.33-.775 1.115 1.115 0 01.79-.33h18.743a.758.758 0 01.56.198l3.626 3.198c.192.189.309.44.33.709v7.203a.992.992 0 01-.33.709zm-6.016-2.193v-3.082l-.478-.363H59.29v4.418h10.27l1.384-.973zm0 10.418V21.84l-1.418-1.039H59.291v4.319h11.176l.478-.38zm35.934 5.472a1.228 1.228 0 01-.396.924c-.27.244-.625.374-.989.362h-4.533a.886.886 0 01-.873-.51l-4.45-8.26h-7.171v7.616a1.114 1.114 0 01-.33.792 1.026 1.026 0 01-.775.33H83.21a1.188 1.188 0 01-1.121-1.122V5.605a1.026 1.026 0 01.33-.775 1.115 1.115 0 01.79-.33h18.363a.688.688 0 01.577.23l3.643 3.248a.988.988 0 01.346.676v7.22a.694.694 0 01-.247.577l-3.808 4.45 4.616 8.638c.112.208.174.44.181.675zM88.467 10.912v5.357h9.362l1.929-2.324v-2.67l-.478-.363H88.467zm47.159 19.335a1.22 1.22 0 01-.379.89 1.267 1.267 0 01-.907.363h-4.022a.998.998 0 01-.577-.181.93.93 0 01-.362-.462l-2.061-5.472a1.103 1.103 0 01-.577.181h-8.983l-1.813 5.258a1.067 1.067 0 01-.989.676h-4.072a1.234 1.234 0 01-1.162-.745 1.187 1.187 0 01-.09-.475c-.002-.145.021-.29.066-.428l8.637-24.709a.941.941 0 01.989-.643h5.736a.963.963 0 01.94.643l9.527 24.61c.065.157.098.325.099.494zm-15.709-10.961h5.077l-2.406-6.346h-.478l-2.193 6.346zm19.368 11.093V5.605a1.023 1.023 0 01.33-.775 1.119 1.119 0 01.791-.33h3.379a.994.994 0 01.709.33l12.379 13.912V5.605a1.023 1.023 0 01.33-.775 1.119 1.119 0 01.791-.33h4.154a1.071 1.071 0 011.105 1.105v24.774a1.125 1.125 0 01-.331.791 1.015 1.015 0 01-.775.33h-2.735a.807.807 0 01-.709-.33l-13.072-15.033V30.38a1.124 1.124 0 01-.329.791 1.019 1.019 0 01-.775.33h-4.121a1.193 1.193 0 01-1.121-1.12zm28.748 0V5.605a1.022 1.022 0 01.329-.775 1.118 1.118 0 01.792-.33h18.263a.777.777 0 01.577.198l3.643 3.198a1 1 0 01.33.709L192 27.379a1.027 1.027 0 01-.33.742l-3.676 3.181a.776.776 0 01-.577.198h-18.263a1.188 1.188 0 01-1.121-1.12zm6.379-5.258h10.714l.461-.38V11.21l-.461-.33h-10.714v14.242z" fill="#000"/><path d="M36 .01V10.7H14.416a3.314 3.314 0 00-3.719 3.728c.002 6.453.002 12.907 0 19.36v.9c.278.014.505.014.729.041.467.057.639-.114.68-.611a23.964 23.964 0 0119.513-21.674c1.413-.267 2.886-.33 4.381-.492v10.757A13.458 13.458 0 0022.67 36H.007v-.768c0-3.778.011-7.556-.005-11.334a5.752 5.752 0 011.77-4.287A6703.782 6703.782 0 0019.504 1.844a5.941 5.941 0 014.47-1.842c3.728.029 7.456.009 11.185.009H36z" fill="url(#paint0_linear)"/><defs><linearGradient id="paint0_linear" x1="18" y1="0" x2="18" y2="36" gradientUnits="userSpaceOnUse"><stop stop-color="#FC3"/><stop offset="1" stop-color="#FFB700"/></linearGradient></defs></svg>